<svg width="684" height="778" viewBox="0 0 684 778" fill="none" xmlns="http://www.w3.org/2000/svg">
<path d="M428.448 1.58375C423.382 3.45042 417.115 8.38375 418.448 9.45042C418.715 9.85042 427.648 10.7838 438.315 11.5838C448.982 12.3838 460.048 13.4504 462.982 13.9838L468.315 14.7838L464.582 10.7838C456.048 1.71709 439.515 -2.54958 428.448 1.58375Z" fill="white"/>
<path d="M259.248 8.25047C244.182 12.3838 236.715 29.1838 240.982 49.4505C243.248 60.6505 251.782 76.6505 259.515 84.3838L266.182 91.1838L262.982 101.317C261.115 107.05 257.515 121.717 254.848 133.984C245.648 176.784 231.648 212.117 211.515 243.05C193.115 271.317 176.582 291.45 124.982 348.517C65.915 413.584 36.715 457.85 17.3816 510.917C-10.3517 587.184 -4.61837 663.717 32.5816 713.717C51.7816 739.584 76.8483 757.184 104.715 764.384C125.648 769.85 245.248 778.384 279.648 776.784C291.382 776.25 291.248 776.65 284.315 761.984C281.782 756.784 280.048 752.25 280.315 751.85C281.782 750.517 295.915 759.05 303.248 765.584C307.515 769.45 312.982 773.317 315.515 774.117C324.982 777.45 338.448 774.784 340.182 769.45C342.048 763.584 334.582 749.584 324.182 739.317C316.448 731.717 305.915 726.384 290.315 722.117C279.782 719.317 276.715 719.05 246.315 719.317L213.648 719.45L220.982 715.717C224.982 713.584 232.982 710.517 238.582 708.784L248.982 705.717L254.315 693.45C267.382 663.85 270.715 630.917 263.515 603.717C255.248 572.65 234.448 549.45 201.515 534.384C180.315 524.517 159.648 519.45 129.648 516.517L112.315 514.784L119.648 512.65C145.248 504.784 184.848 507.717 213.382 519.717C263.515 540.784 291.382 587.317 286.315 641.85C284.582 659.45 280.048 677.584 273.648 691.317C271.115 696.917 269.115 701.584 269.248 701.717C269.515 701.984 275.915 702.784 283.648 703.717C291.382 704.517 301.248 706.517 305.648 707.984C333.648 717.317 352.715 737.85 358.982 765.584L359.782 769.45L376.182 768.517C390.315 767.717 416.182 763.717 417.915 761.984C418.982 760.784 404.848 734.117 394.715 718.65C335.115 627.05 300.715 552.65 283.915 478.384C278.848 456.25 276.182 436.384 278.715 439.85C278.982 440.117 285.915 456.25 294.315 475.717C302.582 495.184 316.048 525.184 324.048 542.384C332.048 559.584 342.048 581.184 346.315 590.384C367.515 636.917 420.982 744.117 429.648 757.85C435.115 766.384 439.648 769.984 448.182 772.384C457.515 775.05 476.315 777.05 492.715 777.05C508.582 777.05 508.048 778.117 500.848 762.517C498.715 757.85 496.982 753.584 496.982 752.917C496.982 750.65 510.848 759.317 518.848 766.65C528.315 775.184 535.782 777.984 545.915 776.517C553.115 775.584 555.648 773.85 555.648 769.717C555.648 764.917 545.515 751.05 537.382 744.517C530.048 738.784 524.982 735.984 502.182 725.184C488.715 718.917 481.248 711.584 477.248 700.784C467.515 674.65 456.982 592.25 456.982 540.917C456.982 510.517 459.248 481.584 461.648 483.85C462.448 484.65 470.848 544.25 476.315 587.717C481.648 630.117 485.115 654.784 485.648 655.45C486.448 656.384 506.982 630.384 515.915 617.05C534.315 589.85 554.182 544.917 562.182 512.384C573.248 468.117 574.315 423.584 566.315 341.717C564.848 327.05 562.982 307.85 562.182 299.05C561.382 290.25 560.582 281.184 560.448 279.05C560.182 276.517 559.382 275.184 558.182 275.45C551.782 276.917 529.515 277.85 521.915 276.917C513.115 275.85 501.915 273.05 502.715 272.25C502.982 271.984 509.382 270.917 517.115 269.85C545.915 265.717 562.715 258.117 579.248 241.584C599.115 221.717 607.248 199.317 610.982 153.85C611.515 148.117 612.315 143.984 612.982 144.517C616.182 148.117 618.848 165.184 618.715 181.717C618.448 200.917 614.982 218.117 608.315 232.117C603.248 243.05 591.915 256.917 582.448 263.717C578.048 266.917 574.315 270.25 574.315 270.917C574.315 271.584 578.582 271.717 584.448 271.317C614.715 268.65 637.382 255.05 649.515 231.85C668.315 196.117 665.382 138.117 643.115 104.784C637.915 96.9171 624.715 83.3171 616.315 77.1838C597.115 63.3171 567.782 50.6505 531.648 40.5171C456.582 19.7171 375.648 13.7171 332.982 25.9838C328.982 27.0505 325.115 28.5171 324.448 29.0505C323.915 29.7171 319.648 27.4505 315.115 24.1171C304.182 15.9838 296.048 11.9838 283.915 8.91714C272.448 5.98381 268.182 5.85047 259.248 8.25047ZM414.982 77.1838C421.115 79.9838 435.648 93.0505 435.648 95.5838C435.648 96.2505 430.048 97.1838 423.382 97.5838C416.582 97.9838 408.182 98.6505 404.582 99.1838C396.315 100.25 392.715 99.1838 386.982 94.1171C380.582 88.5171 379.382 85.9838 380.982 81.7171C384.182 73.1838 401.382 70.7838 414.982 77.1838ZM615.515 109.584C618.982 112.784 618.982 116.517 615.515 124.65C610.848 135.584 610.048 135.984 601.248 132.117C588.315 126.517 587.248 125.85 584.715 121.717C581.515 116.384 581.648 114.917 585.782 111.05C590.048 107.184 592.582 106.517 603.915 106.917C610.448 107.05 613.515 107.717 615.515 109.584Z" fill="white"/>
<path d="M577.115 527.717C566.182 571.45 544.182 616.25 517.115 649.45C504.315 665.184 504.315 661.584 516.982 685.85C523.115 697.45 530.715 711.984 533.782 718.117C538.715 728.117 540.182 729.85 547.382 734.517C557.115 740.917 563.782 748.384 568.582 758.117C570.715 762.384 573.382 765.717 575.115 766.384C582.715 769.317 641.648 772.784 644.982 770.517C646.582 769.45 646.048 767.717 641.915 759.85C639.248 754.65 637.515 750.384 638.048 750.384C640.315 750.384 651.248 758.25 655.115 762.65C657.515 765.317 660.582 768.117 662.048 768.917C667.915 771.984 683.648 769.984 683.648 766.117C683.648 763.184 678.315 753.984 673.782 749.184C667.782 742.65 651.915 732.65 640.048 727.717C616.048 717.984 607.515 711.584 602.315 699.584C596.048 684.917 590.982 649.184 584.315 573.717C582.448 552.384 580.448 531.717 579.915 527.717L578.982 520.384L577.115 527.717Z" fill="white"/>
</svg>
