<svg width="473" height="536" viewBox="0 0 473 536" fill="none" xmlns="http://www.w3.org/2000/svg">
<path d="M320.739 204.523C333.242 211.613 345.56 221.326 354.829 232.305C357.036 234.869 359.357 237.31 361.676 239.773C366.716 245.323 370.808 251.152 374.739 257.523C375.141 258.166 375.544 258.808 375.958 259.47C382.017 269.183 386.881 278.739 390.739 289.523C391.178 290.631 391.618 291.738 392.071 292.879C406.782 332.214 400.946 378.444 383.899 416.027C374.339 436.255 361.846 452.362 346.176 468.273C345.658 468.805 345.14 469.336 344.607 469.883C337.47 477.034 329.168 482.287 320.614 487.586C319.565 488.239 318.516 488.891 317.435 489.564C307.832 495.514 298.115 501.26 288.371 506.974C284.104 509.486 279.858 512.035 275.614 514.586C274.808 515.07 274.002 515.554 273.171 516.053C268.84 518.656 264.512 521.263 260.184 523.871C259.273 524.42 258.362 524.968 257.423 525.533C255.676 526.585 253.929 527.637 252.184 528.692C251.397 529.165 250.611 529.638 249.801 530.125C248.767 530.749 248.767 530.749 247.711 531.385C241.591 534.917 236.82 535.746 229.739 534.523C224.97 532.516 220.698 529.891 216.323 527.142C213.379 525.298 210.411 523.499 207.438 521.703C203.892 519.56 200.347 517.415 196.81 515.256C188.386 510.115 179.923 505.044 171.426 500.023C169.737 499.025 169.737 499.025 168.014 498.006C165.88 496.746 163.746 495.485 161.613 494.224C155.636 490.688 149.679 487.121 143.739 483.523C142.857 482.991 141.975 482.459 141.067 481.91C139.272 480.812 137.501 479.674 135.739 478.523C135.739 478.193 135.739 477.863 135.739 477.523C136.333 477.584 136.927 477.645 137.54 477.707C139.314 477.886 141.089 478.062 142.864 478.234C144.616 478.411 146.366 478.6 148.114 478.812C171.643 481.452 195.167 478.483 217.739 471.523C218.917 471.19 220.095 470.856 221.309 470.512C248.079 462.413 271.874 444.791 291.739 425.523C293.005 424.317 293.005 424.317 294.297 423.086C320.308 397.821 337.659 361.04 343.739 325.523C343.997 324.279 344.254 323.036 344.52 321.754C351.921 283.913 344.952 242.06 323.739 209.523C323.198 208.994 322.658 208.464 322.101 207.919C320.739 206.523 320.739 206.523 320.739 204.523Z" fill="#06D6A0"/>
<path d="M0.738831 277.523C2.93813 279.723 3.55768 281.623 4.53839 284.524C9.6827 299.668 18.1441 312.615 28.3345 324.838C29.7693 326.56 31.1842 328.297 32.5982 330.035C37.5574 336.078 42.6157 341.63 48.7388 346.523C49.4143 347.109 50.0898 347.694 50.7857 348.297C66.5055 361.577 86.1229 373.179 105.739 379.523C107.274 380.07 108.807 380.62 110.34 381.172C139.68 391.57 171.936 395.158 202.739 389.523C203.705 389.351 204.672 389.179 205.668 389.001C239.794 382.704 270.005 368.504 296.739 346.523C298.046 345.485 298.046 345.485 299.379 344.426C302.05 342.273 304.365 340.005 306.739 337.523C307.387 336.858 308.036 336.193 308.704 335.508C314.003 329.882 318.326 323.937 322.464 317.438C325.55 312.618 325.55 312.618 327.739 311.523C327.924 316.652 327.319 321.16 325.989 326.086C325.806 326.781 325.624 327.475 325.435 328.191C325.058 329.618 324.676 331.044 324.29 332.469C323.784 334.357 323.305 336.252 322.829 338.148C320.464 347.158 316.906 355.248 312.739 363.523C312.365 364.284 311.99 365.044 311.605 365.828C306.25 376.675 300.53 386.255 292.739 395.523C291.865 396.598 290.993 397.673 290.122 398.75C275.271 416.917 258.25 431.112 237.739 442.523C236.657 443.138 235.576 443.753 234.461 444.387C217.764 453.341 199.3 457.487 180.739 460.523C179.813 460.699 178.888 460.874 177.935 461.054C159.24 463.8 137.857 462.711 119.739 457.523C118.882 457.288 118.026 457.052 117.144 456.81C108.657 454.459 100.157 452.017 92.064 448.51C89.7414 447.525 87.3951 446.635 85.0357 445.742C79.8883 443.686 75.3081 441.075 70.6138 438.148C68.8634 437.078 67.1121 436.009 65.3599 434.941C63.9907 434.105 63.9907 434.105 62.5938 433.251C57.6557 430.263 52.666 427.363 47.6763 424.461C46.6693 423.874 45.6622 423.287 44.6246 422.682C39.8745 419.916 35.1175 417.163 30.3443 414.438C4.69637 399.775 4.69637 399.775 0.738831 390.523C0.492735 388.266 0.492735 388.266 0.498322 385.753C0.495572 384.796 0.492823 383.84 0.48999 382.855C0.497181 381.812 0.504371 380.77 0.51178 379.696C0.511488 378.594 0.511196 377.491 0.510895 376.355C0.512289 372.708 0.527853 369.061 0.543518 365.414C0.547248 362.886 0.550095 360.359 0.552094 357.831C0.558951 351.856 0.574716 345.882 0.594792 339.907C0.617156 333.104 0.628146 326.301 0.638183 319.499C0.659082 305.507 0.694256 291.515 0.738831 277.523Z" fill="#06D6A0"/>
<path d="M101.739 73.5234C102.729 74.0184 102.729 74.0184 103.739 74.5234C103.029 75.2369 103.029 75.2369 102.305 75.9648C82.8585 96.5487 72.7414 125.994 68.7388 153.523C68.566 154.597 68.3933 155.67 68.2153 156.775C67.725 160.632 67.5929 164.344 67.5708 168.23C67.5666 168.949 67.5623 169.668 67.558 170.408C67.5481 172.717 67.548 175.027 67.5513 177.336C67.5519 178.123 67.5525 178.91 67.5531 179.721C67.5886 196.722 68.8502 212.109 73.7388 228.523C74.117 229.917 74.4919 231.312 74.8638 232.707C77.3325 241.8 80.4893 250.196 84.7588 258.595C85.4271 259.91 86.0866 261.23 86.7383 262.554C107.181 304.06 144.681 340.646 188.864 355.961C191.483 356.835 194.109 357.681 196.739 358.523C198.343 359.106 199.948 359.689 201.551 360.273C210.286 363.134 219.622 363.842 228.739 364.523C225.152 366.914 221.53 367.89 217.426 369.023C216.699 369.236 215.971 369.449 215.221 369.668C202.337 373.261 189.342 373.966 176.051 373.961C175.247 373.962 174.443 373.962 173.614 373.963C151.367 373.91 130.345 370.092 109.739 361.523C108.962 361.204 108.184 360.885 107.384 360.556C88.2247 352.521 70.8581 340.731 55.7388 326.523C55.1878 326.01 54.6369 325.496 54.0693 324.966C41.9398 313.546 31.9939 301.012 23.8403 286.483C23.0994 285.165 22.3492 283.852 21.5903 282.544C13.6189 268.785 7.94838 254.148 5.16624 238.455C4.92094 236.526 4.92094 236.526 3.73875 235.523C0.248318 216.752 0.174356 197.433 0.182847 178.41C0.183157 174.657 0.141501 170.906 0.0905309 167.153C0.0570531 164.208 0.0510895 161.263 0.0526738 158.317C0.0491783 156.933 0.0361682 155.548 0.0126805 154.164C-0.126005 145.185 0.793633 138.525 6.73875 131.523C9.87694 128.786 13.1609 126.652 16.7388 124.523C17.3306 124.168 17.9224 123.813 18.5322 123.448C22.0209 121.359 25.5266 119.302 29.0434 117.262C33.9719 114.398 38.8565 111.465 43.7388 108.523C49.8224 104.862 55.9217 101.232 62.0513 97.6484C70.9395 92.4455 79.7325 87.0871 88.5239 81.7227C89.4084 81.1843 90.2928 80.646 91.2041 80.0913C92.8586 79.0679 94.501 78.0247 96.1289 76.9595C97.9647 75.7602 99.8475 74.6333 101.739 73.5234Z" fill="#06D6A0"/>
<path d="M331.926 147.836C332.886 147.953 333.847 148.071 334.836 148.192C340.036 148.912 344.83 150.034 349.766 151.829C351.72 152.517 353.662 153.042 355.676 153.523C382.302 160.049 405.613 175.245 425.739 193.523C426.258 193.991 426.778 194.458 427.313 194.94C444.559 210.651 457.754 231.68 465.739 253.523C466.005 254.232 466.272 254.941 466.547 255.671C472.241 272.481 472.203 290.603 472.172 308.129C472.177 310.433 472.182 312.737 472.188 315.041C472.197 319.827 472.195 324.613 472.185 329.399C472.173 335.516 472.194 341.632 472.223 347.75C472.241 352.49 472.241 357.229 472.235 361.969C472.235 364.225 472.241 366.481 472.253 368.738C472.268 371.886 472.258 375.032 472.24 378.18C472.255 379.557 472.255 379.557 472.27 380.962C472.19 388.035 470.497 394.046 466.049 399.655C460.055 404.545 453.572 408.521 446.926 412.461C445.689 413.203 444.452 413.945 443.215 414.688C439.397 416.979 435.569 419.253 431.739 421.523C431.138 421.88 430.537 422.236 429.918 422.603C424.767 425.656 419.613 428.705 414.455 431.748C404.122 437.856 393.91 444.15 383.739 450.523C383.739 446.707 384.764 446.042 387.239 443.211C404.073 422.702 414.256 394.821 417.093 368.727C417.644 363.712 417.644 363.712 418.739 361.523C419.048 356.636 419.034 351.732 419.051 346.836C419.054 346.115 419.057 345.395 419.059 344.652C419.064 331.612 417.732 319.243 414.739 306.523C414.563 305.767 414.387 305.011 414.205 304.231C406.956 273.825 390.986 246.261 369.739 223.523C368.28 221.857 366.822 220.191 365.364 218.523C357.686 210.018 349.296 202.813 339.739 196.523C338.539 195.695 337.34 194.865 336.141 194.035C305.773 173.35 273.08 163.696 236.739 161.523C244.407 155.397 254.093 153.482 263.489 151.398C264.649 151.14 265.809 150.881 267.005 150.615C270.247 149.903 273.492 149.209 276.739 148.523C277.999 148.25 279.26 147.977 280.559 147.695C297.188 144.718 315.245 145.786 331.926 147.836Z" fill="#06D6A0"/>
<path d="M401.797 92.9571C406.439 95.7591 411.116 98.469 415.864 101.086C424.469 105.841 432.825 111.003 441.204 116.145C444.574 118.211 447.955 120.252 451.368 122.246C452.052 122.648 452.737 123.049 453.442 123.463C455.217 124.5 456.997 125.53 458.778 126.559C464.144 130.12 469.113 135.007 471.341 141.197C471.937 144.685 471.869 148.161 471.852 151.689C471.853 152.508 471.853 153.328 471.853 154.173C471.852 156.878 471.844 159.584 471.836 162.289C471.835 164.167 471.833 166.044 471.832 167.922C471.828 172.86 471.819 177.799 471.807 182.737C471.797 187.778 471.793 192.819 471.788 197.859C471.777 207.747 471.76 217.635 471.739 227.523C469.278 225.18 468.202 223.505 467.114 220.273C462.179 207.51 454.209 197.129 445.118 187.077C443.737 185.521 442.412 183.93 441.094 182.32C437.956 178.593 434.49 175.618 430.739 172.523C430.247 172.114 429.756 171.705 429.25 171.284C409.285 154.76 385.681 142.214 360.523 135.838C358.567 135.34 356.617 134.82 354.667 134.299C338.969 130.196 323.357 129.106 307.176 129.148C305.937 129.15 305.937 129.15 304.672 129.151C290.709 129.2 277.346 130.187 263.739 133.523C262.252 133.886 262.252 133.886 260.736 134.255C246.353 137.877 233.019 142.963 219.739 149.523C219.011 149.871 218.284 150.219 217.535 150.577C200.365 158.802 185.324 170.252 171.739 183.523C170.325 184.844 170.325 184.844 168.883 186.191C162.875 191.934 158.138 197.854 153.614 204.773C152.106 206.985 150.715 208.745 148.739 210.523C148.609 206.429 148.95 203.038 150.094 199.109C150.384 198.107 150.674 197.105 150.973 196.072C151.288 195.025 151.602 193.978 151.926 192.898C152.248 191.818 152.57 190.737 152.901 189.623C155.095 182.374 157.453 175.359 160.739 168.523C161.013 167.938 161.287 167.352 161.569 166.748C171.299 146.007 183.987 128.085 199.739 111.523C200.319 110.891 200.899 110.258 201.497 109.605C218.896 91.2008 244.447 75.841 268.852 69.3399C271.173 68.6834 273.281 67.9249 275.512 67.0313C320.121 50.0738 364.352 70.2806 401.797 92.9571Z" fill="#06D6A0"/>
<path d="M234.801 0.148438C235.865 0.0994531 236.928 0.0504688 238.024 0C247.151 1.28602 255.429 7.58525 263.239 12.2109C270.361 16.3997 277.495 20.5474 284.739 24.5234C292.171 28.6133 299.527 32.8277 306.864 37.0859C307.939 37.7066 309.014 38.3273 310.122 38.9668C311.112 39.5437 312.102 40.1205 313.122 40.7148C314.012 41.2325 314.903 41.7501 315.821 42.2834C316.454 42.6926 317.087 43.1018 317.739 43.5234C317.739 43.8534 317.739 44.1834 317.739 44.5234C316.667 44.5532 316.667 44.5532 315.574 44.5835C296.552 44.9779 296.552 44.9779 277.739 47.5234C276.522 47.7671 275.305 48.0107 274.051 48.2617C245.452 54.4815 218.904 69.5343 197.739 89.5234C196.471 90.59 195.201 91.6526 193.926 92.7109C176.28 108.236 162.672 127.858 151.739 148.523C151.311 149.329 150.883 150.135 150.443 150.966C140.752 169.533 133.21 189.824 129.739 210.523C129.564 211.522 129.389 212.521 129.208 213.551C127.645 223.306 127.379 232.85 127.426 242.711C127.428 243.527 127.431 244.344 127.433 245.185C127.504 261.979 128.968 276.989 134.845 292.831C136.835 298.234 136.835 298.234 135.739 301.523C132.683 298.239 129.695 294.898 126.739 291.523C126.236 290.95 125.732 290.376 125.214 289.786C94.2669 254.135 84.0561 211.782 85.7388 165.523C88.516 126.319 107.187 88.2325 134.739 60.5234C135.241 60.0168 135.744 59.5102 136.262 58.9883C147.422 47.8873 160.4 40.1736 173.933 32.3215C175.801 31.2375 177.666 30.1496 179.532 29.0608C182.065 27.582 184.599 26.1044 187.133 24.6274C192.345 21.5884 197.544 18.5283 202.739 15.4609C203.628 14.9363 204.517 14.4116 205.433 13.8711C211.467 10.3014 217.445 6.65288 223.375 2.91406C227.221 0.651002 230.403 0.284737 234.801 0.148438Z" fill="#06D6A0"/>
<path d="M101.739 73.5234C102.399 73.8534 103.059 74.1834 103.739 74.5234C101.429 77.1634 99.1188 79.8034 96.7388 82.5234C96.0788 81.8634 95.4188 81.2034 94.7388 80.5234C94.12 80.8741 93.5013 81.2247 92.8638 81.5859C92.1625 81.8953 91.4613 82.2047 90.7388 82.5234C90.0788 82.1934 89.4188 81.8634 88.7388 81.5234C90.858 80.1594 92.9833 78.8071 95.1138 77.4609C95.7171 77.071 96.3203 76.6811 96.9419 76.2793C98.5037 75.2988 100.119 74.4043 101.739 73.5234Z" fill="#06D6A0"/>
<path d="M388.739 441.523C389.399 442.183 390.059 442.843 390.739 443.523C391.729 443.853 392.719 444.183 393.739 444.523C390.109 446.503 386.479 448.483 382.739 450.523C384.483 447.036 386.267 444.49 388.739 441.523Z" fill="#06D6A0"/>
</svg>
